<?xml version="1.0" encoding="UTF-8"?>
<svg id="Layer_1" data-name="Layer 1" xmlns="http://www.w3.org/2000/svg" viewBox="0 0 254.35 274.98">
  <defs>
    <style>
      .cls-1 {
        stroke-width: 4.35px;
      }

      .cls-1, .cls-2, .cls-3, .cls-4 {
        stroke: #000;
        stroke-miterlimit: 10;
      }

      .cls-1, .cls-3 {
        fill: #0976bd;
      }

      .cls-2 {
        fill: #231f20;
      }

      .cls-2, .cls-3, .cls-4 {
        stroke-width: 3.57px;
      }

      .cls-4 {
        fill: #00507e;
      }
    </style>
  </defs>
  <path class="cls-3" d="m230.7,61.16l-14.99,166.66s-2.15,27.81-43.35,39.77-84.56,2.15-98.89-5.37-27.23-19.35-29.02-30.46S23.66,63.3,23.66,63.3"/>
  <path class="cls-2" d="m232.11,78.72c-28.31,58.66-135.56,96.48-135.56,96.48l-83.42-28.02c-18.25-55.72,2.1-93.26,2.1-93.26l8.43,9.39s-18.05,39.47,4.3,67.09l56.11,23.93s84.93,7.65,138.91-78.57l9.13,2.97Z"/>
  <path class="cls-1" d="m13.41,74.83c31.92,28.02,65.01,27.54,83.12,28.21,15.42.57,107,.52,135.73-22.24s24.27-40.35,0-58.45C207.99,4.25,122.85,2.18,122.85,2.18c0,0-54.6-.12-90.28,17.78,0,0-52.87,25.29-19.16,54.87Z"/>
  <path class="cls-4" d="m31.6,62.46c26.62,20.37,54.21,20.02,69.31,20.51,12.86.42,89.23.38,113.18-16.17s20.24-29.34,0-42.5c-20.24-13.16-91.24-14.67-91.24-14.67,0,0-45.53-.09-75.28,12.93,0,0-44.08,18.39-15.98,39.9Z"/>
</svg>