<?xml version="1.0" encoding="UTF-8"?>
<svg id="Layer_1" data-name="Layer 1" xmlns="http://www.w3.org/2000/svg" viewBox="0 0 254.35 275.19">
  <defs>
    <style>
      .cls-1 {
        fill: none;
      }

      .cls-1, .cls-2, .cls-3, .cls-4, .cls-5, .cls-6 {
        stroke: #000;
        stroke-miterlimit: 10;
      }

      .cls-1, .cls-6 {
        stroke-width: 6px;
      }

      .cls-2 {
        stroke-width: 4px;
      }

      .cls-2, .cls-3 {
        fill: #de1e34;
      }

      .cls-3 {
        stroke-width: 4.35px;
      }

      .cls-4, .cls-5 {
        stroke-width: 3.57px;
      }

      .cls-4, .cls-6 {
        fill: #231f20;
      }

      .cls-5 {
        fill: #8f1621;
      }
    </style>
  </defs>
  <path class="cls-2" d="m230.7,61.16l-14.99,166.66s-2.15,27.81-43.35,39.77-84.56,2.15-98.89-5.37-27.23-19.35-29.02-30.46S23.66,63.3,23.66,63.3"/>
  <line class="cls-6" x1="44.02" y1="94" x2="57.34" y2="251.25"/>
  <line class="cls-6" x1="64.28" y1="100.09" x2="73.46" y2="262.22"/>
  <line class="cls-6" x1="87.97" y1="103.18" x2="91.66" y2="268.55"/>
  <line class="cls-6" x1="114.77" y1="103.18" x2="114.77" y2="272.4"/>
  <line class="cls-6" x1="144.14" y1="101.92" x2="139.93" y2="273.19"/>
  <line class="cls-6" x1="167.42" y1="100.09" x2="162.77" y2="269.98"/>
  <line class="cls-6" x1="182.01" y1="264.24" x2="188.23" y2="96.71"/>
  <line class="cls-1" x1="210.08" y1="91.44" x2="200.96" y2="252.76"/>
  <path class="cls-4" d="m232.11,78.72c-28.31,58.66-135.56,96.48-135.56,96.48l-83.42-28.02c-18.25-55.72,2.1-93.26,2.1-93.26l8.43,9.39s-18.05,39.47,4.3,67.09l56.11,23.93s84.93,7.65,138.91-78.57l9.13,2.97Z"/>
  <path class="cls-3" d="m13.41,74.83c31.92,28.02,65.01,27.54,83.12,28.21,15.42.57,107,.52,135.73-22.24s24.27-40.35,0-58.45C207.99,4.25,122.85,2.18,122.85,2.18c0,0-54.6-.12-90.28,17.78,0,0-52.87,25.29-19.16,54.87Z"/>
  <path class="cls-5" d="m31.6,62.46c26.62,20.37,54.21,20.02,69.31,20.51,12.86.42,89.23.38,113.18-16.17s20.24-29.34,0-42.5c-20.24-13.16-91.24-14.67-91.24-14.67,0,0-45.53-.09-75.28,12.93,0,0-44.08,18.39-15.98,39.9Z"/>
</svg>